<?xml version="1.0" ?><svg height="512" width="512" viewBox="0 0 128 128" xmlns="http://www.w3.org/2000/svg"><defs><style>.cls-1{fill:#48b749;}.cls-2{fill:#f8991d;}.cls-3{fill:#5bc9e1;}.cls-4{fill:#fd0;}.cls-5{fill:#314967;}</style></defs><title/><g data-name="09 Calculator" id="_09_Calculator"><rect class="cls-1" height="90" rx="6" ry="6" width="90" x="19" y="19"/><path class="cls-2" d="M26.79,19H64a0,0,0,0,1,0,0V64a0,0,0,0,1,0,0H19a0,0,0,0,1,0,0V26.79A7.79,7.79,0,0,1,26.79,19Z"/><path class="cls-3" d="M26.79,64H64a0,0,0,0,1,0,0v45a0,0,0,0,1,0,0H19a0,0,0,0,1,0,0V71.79A7.79,7.79,0,0,1,26.79,64Z" transform="translate(-45 128) rotate(-90)"/><path class="cls-4" d="M64,19h45a0,0,0,0,1,0,0V64a0,0,0,0,1,0,0H71.79A7.79,7.79,0,0,1,64,56.21V19A0,0,0,0,1,64,19Z" transform="translate(173 83) rotate(-180)"/><path class="cls-5" d="M107,75.95v3.52a2,2,0,0,0,4,0V75.95A2,2,0,0,0,107,75.95Z"/><path class="cls-5" d="M96.5,79h-20c-3.3,0-3.31,5,0,5h20C99.8,84,99.81,79,96.5,79Z"/><path class="cls-5" d="M96.5,89h-20c-3.3,0-3.31,5,0,5h20C99.8,94,99.81,89,96.5,89Z"/><path class="cls-5" d="M78.27,53.27,86.5,45l8.23,8.23c2.34,2.34,5.87-1.2,3.54-3.54L90,41.5l8.23-8.23c2.34-2.33-1.2-5.87-3.54-3.54L86.5,38l-8.23-8.23c-2.34-2.34-5.88,1.2-3.54,3.54L83,41.5l-8.23,8.23C72.4,52.07,75.93,55.61,78.27,53.27Z"/><path class="cls-5" d="M103,17H78.37a2,2,0,0,0,0,4H103a4,4,0,0,1,4,4V62H66V21h3.81a2,2,0,0,0,0-4H25a8,8,0,0,0-8,8V41a2,2,0,0,0,4,0V25a4,4,0,0,1,4-4H62V62H21V47.48a2,2,0,0,0-4,0V103a8,8,0,0,0,8,8,2,2,0,0,0,0-4,4,4,0,0,1-4-4V66H62v41H34a2,2,0,0,0,0,4h69a8,8,0,0,0,8-8V86.39a2,2,0,0,0-4,0V103a4,4,0,0,1-4,4H66V66h41v4a2,2,0,0,0,4,0V25A8,8,0,0,0,103,17Z"/><path class="cls-5" d="M39,96.5c0,3.3,5,3.31,5,0V89h7.5c3.3,0,3.31-5,0-5H44V76.5c0-3.3-5-3.31-5,0V84H31.5c-3.3,0-3.31,5,0,5H39Z"/><path class="cls-5" d="M51.5,44c3.3,0,3.31-5,0-5h-20c-3.3,0-3.31,5,0,5Z"/></g></svg>